  0
SECTION
  2
HEADER
  9
$ACADVER
  1
AC1006
  9
$EXTMIN
 10
0.000000
 20
0.000000
 30
0.000000
  9
$EXTMAX
 10
951.000000
 20
1539.000000
 30
0.000000
  0
ENDSEC
  0
SECTION
  2
ENTITIES
  0
POLYLINE
  8
0
 66
1
 70
1
  0
VERTEX
  8
0
 10
271.000000
 20
1407.007687
 42
0.000000
  0
VERTEX
  8
0
 10
271.000000
 20
1281.015373
 42
0.000000
  0
VERTEX
  8
0
 10
332.250000
 20
1280.757687
 42
0.000000
  0
VERTEX
  8
0
 10
393.500000
 20
1280.500000
 42
0.000000
  0
VERTEX
  8
0
 10
393.754015
 20
1159.750000
 42
0.000000
  0
VERTEX
  8
0
 10
394.008031
 20
1039.000000
 42
0.000000
  0
VERTEX
  8
0
 10
332.500185
 20
1039.000000
 42
0.000000
  0
VERTEX
  8
0
 10
270.992339
 20
1039.000000
 42
0.000000
  0
VERTEX
  8
0
 10
271.246169
 20
912.250000
 42
0.000000
  0
VERTEX
  8
0
 10
271.500000
 20
785.500000
 42
0.000000
  0
VERTEX
  8
0
 10
332.750000
 20
785.242313
 42
0.000000
  0
VERTEX
  8
0
 10
394.000000
 20
784.984627
 42
0.000000
  0
VERTEX
  8
0
 10
394.000000
 20
416.492313
 42
0.000000
  0
VERTEX
  8
0
 10
394.000000
 20
48.000000
 42
0.000000
  0
VERTEX
  8
0
 10
521.010788
 20
48.000000
 42
0.000000
  0
VERTEX
  8
0
 10
648.021576
 20
48.000000
 42
0.000000
  0
VERTEX
  8
0
 10
647.344776
 20
416.500000
 42
0.000000
  0
VERTEX
  8
0
 10
646.667977
 20
785.000000
 42
0.000000
  0
VERTEX
  8
0
 10
707.833988
 20
785.000000
 42
0.000000
  0
VERTEX
  8
0
 10
769.000000
 20
785.000000
 42
0.000000
  0
VERTEX
  8
0
 10
769.000000
 20
912.000000
 42
0.000000
  0
VERTEX
  8
0
 10
769.000000
 20
1039.000000
 42
0.000000
  0
VERTEX
  8
0
 10
708.000000
 20
1039.000000
 42
0.000000
  0
VERTEX
  8
0
 10
647.000000
 20
1039.000000
 42
0.000000
  0
VERTEX
  8
0
 10
647.000000
 20
1160.000000
 42
0.000000
  0
VERTEX
  8
0
 10
647.000000
 20
1281.000000
 42
0.000000
  0
VERTEX
  8
0
 10
708.000000
 20
1281.000000
 42
0.000000
  0
VERTEX
  8
0
 10
769.000000
 20
1281.000000
 42
0.000000
  0
VERTEX
  8
0
 10
769.000000
 20
1407.000000
 42
0.000000
  0
VERTEX
  8
0
 10
769.000000
 20
1533.000000
 42
0.000000
  0
VERTEX
  8
0
 10
520.000000
 20
1533.000000
 42
0.000000
  0
VERTEX
  8
0
 10
271.000000
 20
1533.000000
 42
0.000000
  0
SEQEND
  0
POLYLINE
  8
0
 66
1
 70
1
  0
VERTEX
  8
0
 10
515.754114
 20
1407.491500
 42
0.000000
  0
VERTEX
  8
0
 10
515.500000
 20
1289.983000
 42
0.000000
  0
VERTEX
  8
0
 10
399.750000
 20
1289.987263
 42
-0.000003
  0
VERTEX
  8
0
 10
355.228766
 20
1289.989202
 42
-0.000005
  0
VERTEX
  8
0
 10
317.414062
 20
1289.991518
 42
-0.000001
  0
VERTEX
  8
0
 10
283.609822
 20
1289.993997
 42
-0.000511
  0
VERTEX
  8
0
 10
282.000000
 20
1289.995763
 42
-0.402933
  0
VERTEX
  8
0
 10
280.618808
 20
1291.330200
 42
-0.004882
  0
VERTEX
  8
0
 10
280.254264
 20
1304.937491
 42
-0.004037
  0
VERTEX
  8
0
 10
280.033916
 20
1329.571338
 42
-0.000218
  0
VERTEX
  8
0
 10
280.000000
 20
1407.500000
 42
0.000000
  0
VERTEX
  8
0
 10
280.000000
 20
1525.000000
 42
0.000000
  0
VERTEX
  8
0
 10
398.004114
 20
1525.000000
 42
0.000000
  0
VERTEX
  8
0
 10
516.008229
 20
1525.000000
 42
0.000000
  0
SEQEND
  0
POLYLINE
  8
0
 66
1
 70
1
  0
VERTEX
  8
0
 10
761.000000
 20
1407.666667
 42
-0.000333
  0
VERTEX
  8
0
 10
760.970052
 20
1362.646692
 42
-0.000552
  0
VERTEX
  8
0
 10
760.877633
 20
1324.677604
 42
-0.000017
  0
VERTEX
  8
0
 10
760.754921
 20
1290.328644
 42
-0.197944
  0
VERTEX
  8
0
 10
760.583431
 20
1289.916667
 42
-0.198576
  0
VERTEX
  8
0
 10
760.171487
 20
1289.745664
 42
-0.000017
  0
VERTEX
  8
0
 10
725.749097
 20
1289.698236
 42
-0.000552
  0
VERTEX
  8
0
 10
687.699303
 20
1289.689137
 42
-0.000333
  0
VERTEX
  8
0
 10
642.583431
 20
1289.758178
 42
0.000000
  0
VERTEX
  8
0
 10
525.000000
 20
1290.016356
 42
0.000000
  0
VERTEX
  8
0
 10
525.000000
 20
1407.508178
 42
0.000000
  0
VERTEX
  8
0
 10
525.000000
 20
1525.000000
 42
0.000000
  0
VERTEX
  8
0
 10
643.000000
 20
1525.000000
 42
0.000000
  0
VERTEX
  8
0
 10
761.000000
 20
1525.000000
 42
0.000000
  0
SEQEND
  0
POLYLINE
  8
0
 66
1
 70
1
  0
VERTEX
  8
0
 10
638.000000
 20
1160.000000
 42
0.000000
  0
VERTEX
  8
0
 10
638.000000
 20
1042.000000
 42
0.000000
  0
VERTEX
  8
0
 10
520.000000
 20
1042.000000
 42
0.000000
  0
VERTEX
  8
0
 10
402.000000
 20
1042.000000
 42
0.000000
  0
VERTEX
  8
0
 10
402.000000
 20
1159.333333
 42
-0.000532
  0
VERTEX
  8
0
 10
402.047940
 20
1204.370367
 42
-0.000880
  0
VERTEX
  8
0
 10
402.195833
 20
1242.395833
 42
-0.000044
  0
VERTEX
  8
0
 10
402.392545
 20
1276.676959
 42
-0.197399
  0
VERTEX
  8
0
 10
402.666667
 20
1277.333333
 42
-0.197399
  0
VERTEX
  8
0
 10
403.323041
 20
1277.607455
 42
-0.000044
  0
VERTEX
  8
0
 10
437.604167
 20
1277.804167
 42
-0.000880
  0
VERTEX
  8
0
 10
475.629633
 20
1277.952060
 42
-0.000532
  0
VERTEX
  8
0
 10
520.666667
 20
1278.000000
 42
0.000000
  0
VERTEX
  8
0
 10
638.000000
 20
1278.000000
 42
0.000000
  0
SEQEND
  0
POLYLINE
  8
0
 66
1
 70
1
  0
VERTEX
  8
0
 10
516.000000
 20
912.000000
 42
0.000000
  0
VERTEX
  8
0
 10
516.000000
 20
794.000000
 42
0.000000
  0
VERTEX
  8
0
 10
398.000000
 20
794.000000
 42
0.000000
  0
VERTEX
  8
0
 10
280.000000
 20
794.000000
 42
0.000000
  0
VERTEX
  8
0
 10
280.000000
 20
912.000000
 42
0.000000
  0
VERTEX
  8
0
 10
280.000000
 20
1030.000000
 42
0.000000
  0
VERTEX
  8
0
 10
398.000000
 20
1030.000000
 42
0.000000
  0
VERTEX
  8
0
 10
516.000000
 20
1030.000000
 42
0.000000
  0
SEQEND
  0
POLYLINE
  8
0
 66
1
 70
1
  0
VERTEX
  8
0
 10
761.000000
 20
912.000000
 42
0.000000
  0
VERTEX
  8
0
 10
761.000000
 20
794.000000
 42
0.000000
  0
VERTEX
  8
0
 10
643.000000
 20
794.000000
 42
0.000000
  0
VERTEX
  8
0
 10
525.000000
 20
794.000000
 42
0.000000
  0
VERTEX
  8
0
 10
525.000000
 20
912.000000
 42
0.000000
  0
VERTEX
  8
0
 10
525.000000
 20
1030.000000
 42
0.000000
  0
VERTEX
  8
0
 10
643.000000
 20
1030.000000
 42
0.000000
  0
VERTEX
  8
0
 10
761.000000
 20
1030.000000
 42
0.000000
  0
SEQEND
  0
POLYLINE
  8
0
 66
1
 70
1
  0
VERTEX
  8
0
 10
638.000000
 20
665.000000
 42
0.000000
  0
VERTEX
  8
0
 10
638.000000
 20
547.000000
 42
0.000000
  0
VERTEX
  8
0
 10
520.000000
 20
547.000000
 42
0.000000
  0
VERTEX
  8
0
 10
402.000000
 20
547.000000
 42
0.000000
  0
VERTEX
  8
0
 10
402.000000
 20
664.333333
 42
-0.000532
  0
VERTEX
  8
0
 10
402.047940
 20
709.370367
 42
-0.000880
  0
VERTEX
  8
0
 10
402.195833
 20
747.395833
 42
-0.000044
  0
VERTEX
  8
0
 10
402.392545
 20
781.676959
 42
-0.197399
  0
VERTEX
  8
0
 10
402.666667
 20
782.333333
 42
-0.197399
  0
VERTEX
  8
0
 10
403.323041
 20
782.607455
 42
-0.000044
  0
VERTEX
  8
0
 10
437.604167
 20
782.804167
 42
-0.000880
  0
VERTEX
  8
0
 10
475.629633
 20
782.952060
 42
-0.000532
  0
VERTEX
  8
0
 10
520.666667
 20
783.000000
 42
0.000000
  0
VERTEX
  8
0
 10
638.000000
 20
783.000000
 42
0.000000
  0
SEQEND
  0
POLYLINE
  8
0
 66
1
 70
1
  0
VERTEX
  8
0
 10
638.000000
 20
420.000000
 42
0.000000
  0
VERTEX
  8
0
 10
638.000000
 20
302.000000
 42
0.000000
  0
VERTEX
  8
0
 10
520.000000
 20
302.000000
 42
0.000000
  0
VERTEX
  8
0
 10
402.000000
 20
302.000000
 42
0.000000
  0
VERTEX
  8
0
 10
402.000000
 20
419.333333
 42
-0.000532
  0
VERTEX
  8
0
 10
402.047940
 20
464.370367
 42
-0.000880
  0
VERTEX
  8
0
 10
402.195833
 20
502.395833
 42
-0.000044
  0
VERTEX
  8
0
 10
402.392545
 20
536.676959
 42
-0.197399
  0
VERTEX
  8
0
 10
402.666667
 20
537.333333
 42
-0.197399
  0
VERTEX
  8
0
 10
403.323041
 20
537.607455
 42
-0.000044
  0
VERTEX
  8
0
 10
437.604167
 20
537.804167
 42
-0.000880
  0
VERTEX
  8
0
 10
475.629633
 20
537.952060
 42
-0.000532
  0
VERTEX
  8
0
 10
520.666667
 20
538.000000
 42
0.000000
  0
VERTEX
  8
0
 10
638.000000
 20
538.000000
 42
0.000000
  0
SEQEND
  0
POLYLINE
  8
0
 66
1
 70
1
  0
VERTEX
  8
0
 10
639.000000
 20
175.000000
 42
0.000000
  0
VERTEX
  8
0
 10
639.000000
 20
57.000000
 42
0.000000
  0
VERTEX
  8
0
 10
521.000000
 20
57.000000
 42
0.000000
  0
VERTEX
  8
0
 10
403.000000
 20
57.000000
 42
0.000000
  0
VERTEX
  8
0
 10
403.000000
 20
175.000000
 42
0.000000
  0
VERTEX
  8
0
 10
403.000000
 20
293.000000
 42
0.000000
  0
VERTEX
  8
0
 10
521.000000
 20
293.000000
 42
0.000000
  0
VERTEX
  8
0
 10
639.000000
 20
293.000000
 42
0.000000
  0
SEQEND
  0
ENDSEC
  0
EOF
